<svg xmlns="http://www.w3.org/2000/svg" viewBox="0 0 16 16"><defs><style>.icon-canvas-transparent,.icon-vs-out{fill:#f6f6f6;}.icon-canvas-transparent{opacity:0;}.icon-vs-bg{fill:#424242;}.icon-cs-green{fill:#388a34;}</style></defs><title>CS_ProjectSENode_16x</title><g id="canvas"><path class="icon-canvas-transparent" d="M16,0V16H0V0Z"/></g><g id="outline"><path class="icon-vs-out" d="M16,1V15H0V1Z"/></g><g id="iconBg"><path class="icon-vs-bg" d="M13,7V6H12V5H11V6H10V5H9V6H8V7H9V8H8V9H9v1h1V9h1v1h1V9h1V8H12V7ZM11,8H10V7h1ZM6.076,5A4.125,4.125,0,0,1,7.5,5.215V6.473a2.512,2.512,0,0,0-1.32-.348,1.75,1.75,0,0,0-1.312.514,1.91,1.91,0,0,0-.5,1.392A1.871,1.871,0,0,0,4.84,9.372a1.658,1.658,0,0,0,1.267.5A2.693,2.693,0,0,0,7.5,9.5v1.193A3.772,3.772,0,0,1,5.85,11a2.771,2.771,0,0,1-2.088-.784A2.877,2.877,0,0,1,3,8.124a3.074,3.074,0,0,1,.855-2.258A2.988,2.988,0,0,1,6.076,5Z"/></g><g id="colorAction"><path class="icon-cs-green" d="M1,2V14H15V2ZM14,13H2V3H14Z"/></g></svg>