<?xml version="1.0" encoding="UTF-8" standalone="no"?>
<svg
   viewBox="0 0 16 16"
   version="1.1"
   id="svg20"
   sodipodi:docname="NanoFrameworkProjectNode_16x.svg"
   inkscape:version="1.1.1 (3bf5ae0d25, 2021-09-20)"
   inkscape:export-filename="E:\GitHub\nf-Visual-Studio-extension\assets\VS2019\NanoFrameworkProject.16.16.png"
   inkscape:export-xdpi="96"
   inkscape:export-ydpi="96"
   xmlns:inkscape="http://www.inkscape.org/namespaces/inkscape"
   xmlns:sodipodi="http://sodipodi.sourceforge.net/DTD/sodipodi-0.dtd"
   xmlns="http://www.w3.org/2000/svg"
   xmlns:svg="http://www.w3.org/2000/svg"
   xmlns:rdf="http://www.w3.org/1999/02/22-rdf-syntax-ns#"
   xmlns:cc="http://creativecommons.org/ns#"
   xmlns:dc="http://purl.org/dc/elements/1.1/">
  <sodipodi:namedview
     id="namedview22"
     pagecolor="#ffffff"
     bordercolor="#666666"
     borderopacity="1.0"
     inkscape:pageshadow="2"
     inkscape:pageopacity="0.0"
     inkscape:pagecheckerboard="0"
     showgrid="false"
     inkscape:zoom="18.384776"
     inkscape:cx="0.40794623"
     inkscape:cy="-0.24476774"
     inkscape:window-width="1920"
     inkscape:window-height="1017"
     inkscape:window-x="-8"
     inkscape:window-y="-8"
     inkscape:window-maximized="1"
     inkscape:current-layer="colorAction" />
  <defs
     id="defs4">
    <style
       id="style2">.icon-canvas-transparent,.icon-vs-out{fill:#f6f6f6;}.icon-canvas-transparent{opacity:0;}.icon-vs-bg{fill:#424242;}.icon-cs-green{fill:#388a34;}</style>
  </defs>
  <title
     id="title6">CS_ProjectSENode_16x</title>
  <g
     id="canvas">
    <path
       class="icon-canvas-transparent"
       d="M16,0V16H0V0Z"
       id="path8" />
  </g>
  <g
     id="outline">
    <path
       class="icon-vs-out"
       d="M16,1V15H0V1Z"
       id="path11" />
  </g>
  <g
     id="iconBg">
    <path
       class="icon-vs-bg"
       d="M13,7V6H12V5H11V6H10V5H9V6H8V7H9V8H8V9H9v1h1V9h1v1h1V9h1V8H12V7ZM11,8H10V7h1ZM6.076,5A4.125,4.125,0,0,1,7.5,5.215V6.473a2.512,2.512,0,0,0-1.32-.348,1.75,1.75,0,0,0-1.312.514,1.91,1.91,0,0,0-.5,1.392A1.871,1.871,0,0,0,4.84,9.372a1.658,1.658,0,0,0,1.267.5A2.693,2.693,0,0,0,7.5,9.5v1.193A3.772,3.772,0,0,1,5.85,11a2.771,2.771,0,0,1-2.088-.784A2.877,2.877,0,0,1,3,8.124a3.074,3.074,0,0,1,.855-2.258A2.988,2.988,0,0,1,6.076,5Z"
       id="path14" />
  </g>
  <g
     id="colorAction">
    <path
       class="icon-cs-green"
       d="M1,2V14H15V2ZM14,13H2V3H14Z"
       id="path17"
       style="fill:#009086;fill-opacity:1" />
  </g>
  <metadata
     id="metadata891">
    <rdf:RDF>
      <cc:Work
         rdf:about="">
        <dc:title>CS_ProjectSENode_16x</dc:title>
      </cc:Work>
    </rdf:RDF>
  </metadata>
</svg>
